<svg width="204" height="204" viewBox="0 0 204 204" fill="none" xmlns="http://www.w3.org/2000/svg">
<g filter="url(#filter0_d_15_12)">
<path d="M0 100C0 44.7715 44.7715 0 100 0C155.228 0 200 44.7715 200 100C200 155.228 155.228 200 100 200C44.7715 200 0 155.228 0 100Z" fill="#7D40FF"/>
<path d="M98.4348 46.875C73.1486 46.8718 51.5932 65.1114 47.5447 89.9368C43.4961 114.763 58.15 138.844 82.1409 146.79C84.7248 147.253 85.6498 145.675 85.6498 144.318C85.6498 143.1 85.6085 139.872 85.593 135.58C71.2524 138.664 68.2241 128.703 68.2241 128.703C67.28 125.603 65.2504 122.942 62.5033 121.203C57.8523 118.022 62.8599 118.094 62.8599 118.094C66.1708 118.545 69.0848 120.497 70.7511 123.378C72.1616 125.929 74.5378 127.813 77.3519 128.613C80.1661 129.413 83.1849 129.062 85.7377 127.639C85.9776 125.038 87.1409 122.607 89.0191 120.782C77.5778 119.492 65.5472 115.092 65.5472 95.4422C65.4837 90.3598 67.3812 85.4466 70.8493 81.7134C69.2801 77.2895 69.4649 72.4371 71.3661 68.144C71.3661 68.144 75.6915 66.7614 85.5362 73.3919C93.9797 71.0893 102.891 71.0893 111.334 73.3919C121.183 66.7562 125.504 68.144 125.504 68.144C127.414 72.4351 127.599 77.2909 126.02 81.7134C129.501 85.4462 131.398 90.3722 131.312 95.4627C131.312 115.164 119.271 119.492 107.789 120.761C110.265 123.281 111.536 126.736 111.277 130.25C111.277 137.106 111.215 142.637 111.215 144.318C111.215 145.69 112.135 147.283 114.765 146.78C138.746 138.82 153.384 114.737 149.327 89.9183C145.27 65.0994 123.716 46.8692 98.4348 46.875Z" fill="#FFEBEB"/>
<path d="M100 199C45.3238 199 1 154.676 1 100H-1C-1 155.781 44.2192 201 100 201V199ZM199 100C199 154.676 154.676 199 100 199V201C155.781 201 201 155.781 201 100H199ZM100 1C154.676 1 199 45.3238 199 100H201C201 44.2192 155.781 -1 100 -1V1ZM100 -1C44.2192 -1 -1 44.2192 -1 100H1C1 45.3238 45.3238 1 100 1V-1Z" fill="#133834"/>
</g>
<defs>
<filter id="filter0_d_15_12" x="0" y="0" width="204" height="204" filterUnits="userSpaceOnUse" color-interpolation-filters="sRGB">
<feFlood flood-opacity="0" result="BackgroundImageFix"/>
<feColorMatrix in="SourceAlpha" type="matrix" values="0 0 0 0 0 0 0 0 0 0 0 0 0 0 0 0 0 0 127 0" result="hardAlpha"/>
<feOffset dx="4" dy="4"/>
<feComposite in2="hardAlpha" operator="out"/>
<feColorMatrix type="matrix" values="0 0 0 0 0.490196 0 0 0 0 0.25098 0 0 0 0 1 0 0 0 0.5 0"/>
<feBlend mode="normal" in2="BackgroundImageFix" result="effect1_dropShadow_15_12"/>
<feBlend mode="normal" in="SourceGraphic" in2="effect1_dropShadow_15_12" result="shape"/>
</filter>
</defs>
</svg>
