<svg width="204" height="204" viewBox="0 0 204 204" fill="none" xmlns="http://www.w3.org/2000/svg">
<g filter="url(#filter0_d_15_15)">
<rect width="200" height="200" rx="100" fill="#FF891D"/>
<path d="M143.832 97.7734C143.676 101.914 143.07 105.977 142.016 109.961C140.961 113.945 139.359 117.539 137.211 120.742C135.102 123.945 132.406 126.504 129.125 128.418C125.883 130.293 121.977 131.23 117.406 131.23C114.945 131.23 112.68 130.801 110.609 129.941C108.578 129.082 106.82 127.852 105.336 126.25C103.891 124.648 102.777 122.715 101.996 120.449C101.254 118.184 100.961 115.645 101.117 112.832L104.105 78.4375H117.289L114.359 112.832C114.164 114.473 114.184 115.82 114.418 116.875C114.691 117.93 115.102 118.75 115.648 119.336C116.234 119.922 116.898 120.352 117.641 120.625C118.422 120.859 119.203 120.977 119.984 120.977C121.664 120.977 123.207 120.41 124.613 119.277C126.059 118.145 127.309 116.562 128.363 114.531C129.457 112.461 130.316 110.059 130.941 107.324C131.566 104.551 131.918 101.562 131.996 98.3594C132.23 93.4766 131.977 88.9453 131.234 84.7656C130.492 80.5469 129.223 76.7578 127.426 73.3984C125.668 70.0391 123.383 67.1875 120.57 64.8438C117.758 62.4609 114.418 60.6445 110.551 59.3945C106.684 58.1055 102.25 57.4609 97.25 57.4609C92.5234 57.4609 88.168 58.2031 84.1836 59.6875C80.1992 61.1719 76.625 63.3008 73.4609 66.0742C70.3359 68.8086 67.6406 72.0703 65.375 75.8594C63.1484 79.6484 61.3906 83.8477 60.1016 88.457C58.8125 93.0664 58.0508 97.9688 57.8164 103.164C57.543 108.789 57.8359 113.867 58.6953 118.398C59.5938 122.891 61.0195 126.816 62.9727 130.176C64.9258 133.574 67.3672 136.387 70.2969 138.613C73.2266 140.879 76.625 142.578 80.4922 143.711C84.3984 144.844 88.7148 145.41 93.4414 145.41C96.8398 145.41 100.297 145.039 103.812 144.297C107.367 143.555 110.375 142.656 112.836 141.602L115.062 151.328C112.328 153.086 108.91 154.395 104.809 155.254C100.707 156.113 96.8398 156.543 93.207 156.543C86.8789 156.543 81.1172 155.82 75.9219 154.375C70.7266 152.93 66.1367 150.762 62.1523 147.871C58.207 144.98 54.9062 141.387 52.25 137.09C49.6328 132.832 47.6992 127.871 46.4492 122.207C45.1992 116.543 44.7109 110.195 44.9844 103.164C45.2578 96.7578 46.2539 90.7422 47.9727 85.1172C49.6914 79.4531 52.0547 74.3164 55.0625 69.707C58.1094 65.0977 61.7422 61.1328 65.9609 57.8125C70.1797 54.4531 74.9258 51.875 80.1992 50.0781C85.5117 48.2812 91.2734 47.3828 97.4844 47.3828C103.656 47.3828 109.242 48.1641 114.242 49.7266C119.281 51.2891 123.695 53.5547 127.484 56.5234C131.273 59.4531 134.418 62.9883 136.918 67.1289C139.457 71.2695 141.293 75.918 142.426 81.0742C143.598 86.2305 144.066 91.7969 143.832 97.7734ZM85.1797 104.453C84.9844 106.953 84.9844 109.18 85.1797 111.133C85.4141 113.047 85.8242 114.648 86.4102 115.938C87.0352 117.227 87.8359 118.203 88.8125 118.867C89.8281 119.531 91.0195 119.863 92.3867 119.863C93.0508 119.863 93.8125 119.707 94.6719 119.395C95.5312 119.043 96.4102 118.438 97.3086 117.578C98.207 116.68 99.0859 115.43 99.9453 113.828C100.805 112.188 101.547 110.059 102.172 107.441L107.621 114.121C106.723 116.934 105.629 119.395 104.34 121.504C103.051 123.613 101.566 125.371 99.8867 126.777C98.2461 128.184 96.4102 129.238 94.3789 129.941C92.3867 130.645 90.1992 130.996 87.8164 130.996C84.9648 130.996 82.3867 130.371 80.082 129.121C77.8164 127.871 75.9023 126.094 74.3398 123.789C72.7773 121.445 71.6445 118.652 70.9414 115.41C70.2773 112.129 70.1406 108.477 70.5312 104.453C71 100.508 71.8008 96.8555 72.9336 93.4961C74.1055 90.1367 75.5508 87.1484 77.2695 84.5312C78.9883 81.875 80.9609 79.6094 83.1875 77.7344C85.4141 75.8594 87.8359 74.4336 90.4531 73.457C93.1094 72.4805 95.9023 71.9922 98.832 71.9922C103.48 71.9922 107.113 72.6562 109.73 73.9844C112.387 75.2734 114.906 76.7578 117.289 78.4375L110.844 87.5781C109.711 86.5625 108.227 85.5859 106.391 84.6484C104.594 83.6719 102.445 83.1836 99.9453 83.1836C97.6016 83.1836 95.5898 83.6523 93.9102 84.5898C92.2305 85.4883 90.8047 86.8555 89.6328 88.6914C88.4609 90.4883 87.5039 92.7148 86.7617 95.3711C86.0586 97.9883 85.5312 101.016 85.1797 104.453Z" fill="white"/>
<rect x="0.5" y="0.5" width="199" height="199" rx="99.5" stroke="#133834"/>
</g>
<defs>
<filter id="filter0_d_15_15" x="0" y="0" width="204" height="204" filterUnits="userSpaceOnUse" color-interpolation-filters="sRGB">
<feFlood flood-opacity="0" result="BackgroundImageFix"/>
<feColorMatrix in="SourceAlpha" type="matrix" values="0 0 0 0 0 0 0 0 0 0 0 0 0 0 0 0 0 0 127 0" result="hardAlpha"/>
<feOffset dx="4" dy="4"/>
<feComposite in2="hardAlpha" operator="out"/>
<feColorMatrix type="matrix" values="0 0 0 0 1 0 0 0 0 0.537255 0 0 0 0 0.113725 0 0 0 0.5 0"/>
<feBlend mode="normal" in2="BackgroundImageFix" result="effect1_dropShadow_15_15"/>
<feBlend mode="normal" in="SourceGraphic" in2="effect1_dropShadow_15_15" result="shape"/>
</filter>
</defs>
</svg>