<svg width="204" height="204" viewBox="0 0 204 204" fill="none" xmlns="http://www.w3.org/2000/svg">
<g filter="url(#filter0_d_15_13)">
<path d="M0 100C0 44.7715 44.7715 0 100 0C155.228 0 200 44.7715 200 100C200 155.228 155.228 200 100 200C44.7715 200 0 155.228 0 100Z" fill="#4ABEFF"/>
<path d="M137.853 72.5834C142.272 69.9414 145.579 65.7812 147.155 60.8796C143.003 63.3436 138.459 65.0794 133.721 66.0117C127.153 59.0631 116.745 57.3721 108.314 61.8836C99.8834 66.3952 95.5164 75.9924 97.6536 85.3126C80.6433 84.4585 64.7952 76.4234 54.053 63.2066C48.4469 72.8763 51.3117 85.2375 60.6 91.4554C57.2413 91.3474 53.957 90.4378 51.0211 88.803C51.0211 88.8917 51.0211 88.9805 51.0211 89.0693C51.023 99.1417 58.1221 107.818 67.995 109.815C64.8795 110.662 61.6117 110.787 58.4407 110.179C61.2173 118.794 69.1562 124.695 78.205 124.871C70.7106 130.753 61.4552 133.943 51.9282 133.927C50.2396 133.93 48.5522 133.832 46.875 133.636C56.5495 139.853 67.8095 143.152 79.3093 143.141C95.3084 143.251 110.683 136.944 121.996 125.63C133.309 114.316 139.616 98.94 139.504 82.9413C139.504 82.0243 139.483 81.1122 139.44 80.2051C143.584 77.2107 147.159 73.5011 150 69.2507C146.14 70.9617 142.046 72.0851 137.853 72.5834Z" fill="white"/>
<path d="M100 199C45.3238 199 1 154.676 1 100H-1C-1 155.781 44.2192 201 100 201V199ZM199 100C199 154.676 154.676 199 100 199V201C155.781 201 201 155.781 201 100H199ZM100 1C154.676 1 199 45.3238 199 100H201C201 44.2192 155.781 -1 100 -1V1ZM100 -1C44.2192 -1 -1 44.2192 -1 100H1C1 45.3238 45.3238 1 100 1V-1Z" fill="#133834"/>
</g>
<defs>
<filter id="filter0_d_15_13" x="0" y="0" width="204" height="204" filterUnits="userSpaceOnUse" color-interpolation-filters="sRGB">
<feFlood flood-opacity="0" result="BackgroundImageFix"/>
<feColorMatrix in="SourceAlpha" type="matrix" values="0 0 0 0 0 0 0 0 0 0 0 0 0 0 0 0 0 0 127 0" result="hardAlpha"/>
<feOffset dx="4" dy="4"/>
<feComposite in2="hardAlpha" operator="out"/>
<feColorMatrix type="matrix" values="0 0 0 0 0.290196 0 0 0 0 0.745098 0 0 0 0 1 0 0 0 0.5 0"/>
<feBlend mode="normal" in2="BackgroundImageFix" result="effect1_dropShadow_15_13"/>
<feBlend mode="normal" in="SourceGraphic" in2="effect1_dropShadow_15_13" result="shape"/>
</filter>
</defs>
</svg>
