<svg width="276" height="279" viewBox="0 0 276 279" fill="none" xmlns="http://www.w3.org/2000/svg">
<path d="M39.7378 98.6987C50.9624 109.101 59.2357 117.579 71.1144 127.153" stroke="black" stroke-width="3" stroke-linecap="round"/>
<path d="M25.4324 111.025C34.1642 102.373 44.428 95.2337 52.9609 86.4234" stroke="black" stroke-width="3" stroke-linecap="round"/>
<path d="M72 65.7146C79.1408 80.6799 85.4583 95.6488 91.8497 110.885" stroke="black" stroke-width="3" stroke-linecap="round"/>
<path d="M72 65.7144C76.0683 67.4122 112.308 83.8622 119.127 87.785" stroke="black" stroke-width="3" stroke-linecap="round"/>
<path d="M86.6704 98.5913C91.6088 93.8252 99.3439 85.3088 105.636 81.2384" stroke="black" stroke-width="3" stroke-linecap="round"/>
<path d="M95.7966 46.7197C105.573 54.4171 114.858 62.4822 124.085 70.8007C125.071 71.6891 133.151 78.5125 133.246 77.6448" stroke="black" stroke-width="3" stroke-linecap="round"/>
<path d="M95.9009 45.7268C100.061 37.2688 103.517 29.9853 113.503 28.7267C119.989 27.9092 125.119 32.4494 128.805 37.2533C134.719 44.9595 120.849 58.1108 118.933 65.6069" stroke="black" stroke-width="3" stroke-linecap="round"/>
<path d="M71.4619 181.549C80.3713 191.693 89.153 202.197 98.7949 211.672" stroke="black" stroke-width="3" stroke-linecap="round"/>
<path d="M85.7513 196.895C88.3459 194.339 96.3093 183.706 102.456 181.117" stroke="black" stroke-width="3" stroke-linecap="round"/>
<path d="M88.5403 165.266C97.6992 174.222 108.975 187.685 117.8 195.82" stroke="black" stroke-width="3" stroke-linecap="round"/>
<path d="M102.496 154.078C109.105 162.629 115.386 172.509 123.25 180.042C125.494 182.191 126.584 185.285 129.491 183.091C133.804 179.836 138.653 174.998 143.049 171.573" stroke="black" stroke-width="3" stroke-linecap="round"/>
<path d="M115.66 169.109C116.464 168.351 127.068 159.393 130.659 156.405" stroke="black" stroke-width="3" stroke-linecap="round"/>
<path d="M103.098 153.627C109.66 148.309 116.26 142.199 123.757 138.135" stroke="black" stroke-width="3" stroke-linecap="round"/>
<path d="M131.668 128.25C141.175 139.011 151.041 151.085 160.648 161.381" stroke="black" stroke-width="3" stroke-linecap="round"/>
<path d="M131.668 128.25C138.226 122.661 145.841 116.515 153.833 122.19C158.517 125.516 159.084 130.545 157.584 135.632C156.724 138.55 153.019 141.652 148.722 145.106" stroke="black" stroke-width="3" stroke-linecap="round"/>
<path d="M158.018 137.634C165.457 139.397 173.332 140.858 180.435 143.832" stroke="black" stroke-width="3" stroke-linecap="round"/>
<path d="M163.621 109.412C170.131 116.143 174.211 122.765 181.037 129.711C181.828 130.516 188.48 140.013 189.983 137.427C191.958 134.03 204.35 125.079 207.92 122.209" stroke="black" stroke-width="3" stroke-linecap="round"/>
<path d="M177.299 122.136C178.683 120.896 189.919 110.929 192.564 108.954" stroke="black" stroke-width="3" stroke-linecap="round"/>
<path d="M163.381 109.206C163.618 109.018 177.526 96.0934 182.395 92.1801" stroke="black" stroke-width="3" stroke-linecap="round"/>
<path d="M111.354 255.073L153.813 259.692" stroke="black" stroke-width="3" stroke-linecap="round"/>
<path d="M179.323 193.389L193.986 211.632" stroke="black" stroke-width="3" stroke-linecap="round"/>
<path d="M250.282 182.225L255.189 137.112" stroke="black" stroke-width="3" stroke-linecap="round"/>
</svg>
