<svg width="981" height="1019" viewBox="0 0 981 1019" fill="none" xmlns="http://www.w3.org/2000/svg">
<g filter="url(#filter0_d_15_78)">
<path d="M33.6577 20.9799C34.0432 9.94093 43.3046 1.30457 54.3435 1.69006L953.795 33.0996C964.834 33.4851 973.471 42.7464 973.085 53.7854L971.832 89.6607L32.4049 56.8551L33.6577 20.9799Z" fill="#323030"/>
<rect x="35.7807" y="60.4751" width="933" height="915.303" transform="rotate(2 35.7807 60.4751)" stroke="#323030" stroke-width="7"/>
<ellipse cx="67.2947" cy="31.9723" rx="18" ry="16.7691" transform="rotate(2 67.2947 31.9723)" fill="#FF605C"/>
<ellipse cx="119.263" cy="33.7871" rx="18" ry="16.7691" transform="rotate(2 119.263 33.7871)" fill="#FFBD64"/>
<ellipse cx="171.231" cy="35.6018" rx="18" ry="16.7691" transform="rotate(2 171.231 35.6018)" fill="#00CA4E"/>
<path d="M462.702 26.2881L467.979 26.4724L466.806 60.0519L461.529 59.8676L462.702 26.2881ZM471.93 26.6104L478.55 26.8415L482.981 47.1205L483.077 47.1239L483.779 27.0241L488.48 27.1883L487.308 60.7678L481.887 60.5785L476.411 35.8444L476.315 35.841L475.459 60.3541L470.758 60.1899L471.93 26.6104ZM496.36 32.2664L490.844 32.0738L491.011 27.2767L507.321 27.8462L507.154 32.6433L501.637 32.4507L500.632 61.2331L495.355 61.0489L496.36 32.2664ZM509.876 27.9355L517.695 28.2085C520.414 28.3034 522.374 29.0123 523.577 30.3351C524.78 31.6259 525.336 33.5825 525.245 36.2049L525.173 38.2676C525.051 41.7535 523.823 43.9199 521.488 44.767L521.484 44.8629C522.75 45.2913 523.618 46.1061 524.089 47.3073C524.591 48.5095 524.808 50.1021 524.738 52.0849L524.532 57.9853C524.499 58.9447 524.503 59.7293 524.546 60.3392C524.59 60.9171 524.73 61.4983 524.966 62.0829L519.593 61.8953C519.42 61.3449 519.31 60.8287 519.263 60.3468C519.215 59.8648 519.214 59.0003 519.257 57.753L519.472 51.6128C519.525 50.0777 519.307 48.9974 518.816 48.3719C518.358 47.7475 517.521 47.4141 516.306 47.3717L514.483 47.308L513.98 61.6993L508.703 61.515L509.876 27.9355ZM516.569 42.578C517.625 42.6148 518.418 42.3703 518.948 41.8445C519.511 41.3199 519.815 40.4179 519.859 39.1387L519.95 36.5483C519.992 35.333 519.799 34.4457 519.37 33.8864C518.973 33.3282 518.311 33.0329 517.384 33.0006L514.985 32.9168L514.65 42.511L516.569 42.578ZM535.662 62.9367C533.071 62.8462 531.114 62.0414 529.79 60.5223C528.467 59.0032 527.852 56.9004 527.945 54.2141L528.562 36.5608C528.656 33.8745 529.416 31.8197 530.842 30.3967C532.269 28.9736 534.277 28.3073 536.868 28.3977C539.458 28.4882 541.415 29.293 542.739 30.8121C544.063 32.3312 544.678 34.434 544.584 37.1203L543.968 54.7736C543.874 57.4599 543.114 59.5147 541.687 60.9377C540.261 62.3608 538.252 63.0271 535.662 62.9367ZM535.829 58.1396C537.652 58.2033 538.602 57.1318 538.679 54.9251L539.319 36.6003C539.396 34.3936 538.523 33.2585 536.7 33.1948C534.877 33.1312 533.927 34.2027 533.85 36.4093L533.21 54.7341C533.133 56.9408 534.006 58.0759 535.829 58.1396Z" fill="#EDEDED"/>
</g>
<defs>
<filter id="filter0_d_15_78" x="0.217041" y="1.67761" width="979.88" height="1016.72" filterUnits="userSpaceOnUse" color-interpolation-filters="sRGB">
<feFlood flood-opacity="0" result="BackgroundImageFix"/>
<feColorMatrix in="SourceAlpha" type="matrix" values="0 0 0 0 0 0 0 0 0 0 0 0 0 0 0 0 0 0 127 0" result="hardAlpha"/>
<feOffset dx="7" dy="7"/>
<feComposite in2="hardAlpha" operator="out"/>
<feColorMatrix type="matrix" values="0 0 0 0 0.536953 0 0 0 0 0.0864062 0 0 0 0 0.9875 0 0 0 1 0"/>
<feBlend mode="normal" in2="BackgroundImageFix" result="effect1_dropShadow_15_78"/>
<feBlend mode="normal" in="SourceGraphic" in2="effect1_dropShadow_15_78" result="shape"/>
</filter>
</defs>
</svg>
